Coordinates
version=1
nRows=11
nColumns=26
inDegrees=yes

Units are S.I. units (second, meters, Newtons, ...)
If the header above contains a line with 'inDegrees', this indicates whether rotational values are in degrees (yes) or radians (no).

endheader
time	pelvis_tilt	pelvis_list	pelvis_rotation	pelvis_tx	pelvis_ty	pelvis_tz	hip_flexion_r	hip_adduction_r	hip_rotation_r	knee_angle_r	knee_angle_r_beta	ankle_angle_r	subtalar_angle_r	mtp_angle_r	hip_flexion_l	hip_adduction_l	hip_rotation_l	knee_angle_l	knee_angle_l_beta	ankle_angle_l	subtalar_angle_l	mtp_angle_l	lumbar_ext	lumbar_bend	lumbar_rota
      7.58000000	    -11.74964046	      0.11143795	      7.61466845	      1.42840826	      0.98915930	     -0.37686394	    -13.48722798	      4.21858070	     -5.22922455	      5.21978893	      0.09110250	    -39.48541879	      1.11923742	      0.00000000	     50.80243245	      6.01199818	      0.72367549	     65.32473953	      1.14013179	      1.21864201	     19.73853192	      0.00000000	     -0.66158706	     -0.91768130	      9.29591346
      7.59000000	    -13.26536967	      0.40304744	      8.93916538	      1.43020307	      0.99209683	     -0.37773499	    -13.67394592	      3.85607560	     -8.13005964	      5.38388010	      0.09396643	    -39.67640656	      2.42146507	      0.00000000	     51.41833181	      7.67202553	      1.08694001	     57.76071892	      1.00811472	      1.58544550	     21.24901728	      0.00000000	      1.34341982	     -2.10965497	      8.97379803
      7.60000000	    -14.55219972	      0.51572136	     10.07506089	      1.43175981	      0.99502539	     -0.37815548	    -13.79189281	      3.77737284	     -9.13075508	      6.16869235	      0.10766399	    -39.75173859	      2.44926331	      0.00000000	     51.35890422	      8.96860024	      1.50415118	     49.69219218	      0.86729237	      2.28065521	     23.72744798	      0.00000000	      3.02497360	     -3.08950996	      8.53209136
      7.61000000	    -15.34867002	     -0.01556803	     11.13562038	      1.43314484	      0.99808329	     -0.37822993	    -13.99985428	      4.67376185	     -7.13877641	      7.27556275	      0.12698252	    -39.75999165	      1.22556399	      0.00000000	     50.31199284	     10.06479416	      3.41262407	     41.22561725	      0.71952276	      3.01547036	     26.01177776	      0.00000000	      4.16866769	     -3.27968142	      8.07220428
      7.62000000	    -15.67525556	     -0.90503016	     11.80294939	      1.43463033	      1.00056648	     -0.37779779	    -14.34152122	      6.19859567	     -3.02416365	      8.69553810	      0.15176577	    -39.72737500	     -0.70624682	      0.00000000	     48.93180145	      9.81689656	      4.66141670	     33.40597173	      0.58304420	      3.95620119	     29.69317024	      0.00000000	      4.84535598	     -2.91703946	      7.74374201
      7.63000000	    -15.48695461	     -1.96685331	     12.32250203	      1.43601145	      1.00268399	     -0.37703758	    -14.88144482	      8.06573381	      0.62235795	     10.66385712	      0.18611942	    -39.69277621	     -1.36607140	      0.00000000	     47.01604528	      9.43311862	      5.86789735	     25.83637975	      0.45092989	      4.24447852	     32.11077627	      0.00000000	      4.86248590	     -2.05038688	      7.18664677
      7.64000000	    -14.99662823	     -3.32290457	     12.77706528	      1.43697576	      1.00373416	     -0.37643746	    -15.34880928	     10.24648285	      3.12276491	     13.16432126	      0.22976075	    -39.63143104	     -0.56062969	      0.00000000	     45.16726096	      8.80624237	      7.62106978	     19.60046247	      0.34209261	      4.85234879	     32.96158262	      0.00000000	      4.59894841	     -0.69991675	      6.68805218
      7.65000000	    -14.02269358	     -4.82809320	     13.01464063	      1.43814127	      1.00458189	     -0.37507310	    -15.83982992	     12.62511256	      4.76336874	     16.39318875	      0.28611512	    -39.53141776	      1.21213128	      0.00000000	     43.59646319	      7.70039739	      8.89296975	     15.65969426	      0.27331322	      6.76610494	     33.47019250	      0.00000000	      3.72488742	      0.98846160	      6.65722773
      7.66000000	    -12.61195575	     -5.40829090	     13.68782127	      1.43851194	      1.00667694	     -0.37523343	    -16.37768497	     14.06031745	      4.62206349	     20.37682605	      0.35564271	    -39.33339770	      3.60536312	      0.00000000	     40.52233330	      7.32581476	     10.16306138	     10.86642258	      0.18965485	      6.53823412	     33.73019977	      0.00000000	      2.03211764	      1.78604108	      5.38285679
      7.67000000	    -11.16877646	     -6.28144570	     14.07956604	      1.43919633	      1.00705755	     -0.37466855	    -16.27517745	     15.69451871	      4.27824128	     25.55524347	      0.44602314	    -38.92314795	      6.14301385	      0.00000000	     38.31086968	      6.45956916	     12.00909011	      8.63844916	      0.15076938	      6.59743282	     33.84324158	      0.00000000	      0.42771778	      2.96746456	      4.90943346
      7.68000000	     -9.38832553	     -7.03325567	     14.53895671	      1.43964935	      1.00741869	     -0.37433640	    -16.57272687	     17.16368481	      3.70539991	     30.68546176	      0.53556234	    -37.61483080	      7.98609203	      0.00000000	     35.75380562	      5.44248410	     13.82210978	      7.32422909	      0.12783191	      5.99813885	     33.93519247	      0.00000000	     -1.74906327	      4.15933377	      4.00522801
